<svg width="26" height="26" viewBox="0 0 26 26" fill="none" xmlns="http://www.w3.org/2000/svg">
<path d="M17.5395 2.16669H8.46116C4.51783 2.16669 2.16699 4.51752 2.16699 8.46085V17.5284C2.16699 21.4825 4.51783 23.8334 8.46116 23.8334H17.5287C21.472 23.8334 23.8228 21.4825 23.8228 17.5392V8.46085C23.8337 4.51752 21.4828 2.16669 17.5395 2.16669ZM19.5003 13.8125H13.8128V19.5C13.8128 19.9442 13.4445 20.3125 13.0003 20.3125C12.5562 20.3125 12.1878 19.9442 12.1878 19.5V13.8125H6.50033C6.05616 13.8125 5.68783 13.4442 5.68783 13C5.68783 12.5559 6.05616 12.1875 6.50033 12.1875H12.1878V6.50002C12.1878 6.05585 12.5562 5.68752 13.0003 5.68752C13.4445 5.68752 13.8128 6.05585 13.8128 6.50002V12.1875H19.5003C19.9445 12.1875 20.3128 12.5559 20.3128 13C20.3128 13.4442 19.9445 13.8125 19.5003 13.8125Z" fill="white"/>
</svg>
