<svg width="26" height="26" viewBox="0 0 26 26" fill="none" xmlns="http://www.w3.org/2000/svg">
<path d="M22.5982 9.0675L15.0907 3.06583C13.9315 2.13417 12.0574 2.13417 10.909 3.055L3.40155 9.0675C2.55655 9.73917 2.01488 11.1583 2.19905 12.22L3.63988 20.8433C3.89988 22.3817 5.37321 23.6275 6.93321 23.6275H19.0665C20.6157 23.6275 22.0999 22.3708 22.3599 20.8433L23.8007 12.22C23.974 11.1583 23.4324 9.73917 22.5982 9.0675ZM12.9999 16.7917C11.5049 16.7917 10.2915 15.5783 10.2915 14.0833C10.2915 12.5883 11.5049 11.375 12.9999 11.375C14.4949 11.375 15.7082 12.5883 15.7082 14.0833C15.7082 15.5783 14.4949 16.7917 12.9999 16.7917Z" fill="white"/>
</svg>
