<svg width="26" height="26" viewBox="0 0 26 26" fill="none" xmlns="http://www.w3.org/2000/svg">
<path d="M18.417 2.63251H7.58366C4.33366 2.63251 2.16699 4.79917 2.16699 8.04917V14.5492C2.16699 17.7992 4.33366 19.9658 7.58366 19.9658V22.2733C7.58366 23.14 8.54783 23.66 9.26283 23.1725L14.0837 19.9658H18.417C21.667 19.9658 23.8337 17.7992 23.8337 14.5492V8.04917C23.8337 4.79917 21.667 2.63251 18.417 2.63251ZM13.0003 15.8167C12.5453 15.8167 12.1878 15.4483 12.1878 15.0042C12.1878 14.56 12.5453 14.1917 13.0003 14.1917C13.4553 14.1917 13.8128 14.56 13.8128 15.0042C13.8128 15.4483 13.4553 15.8167 13.0003 15.8167ZM14.3653 11.3208C13.9428 11.6025 13.8128 11.7867 13.8128 12.09V12.3175C13.8128 12.7617 13.4445 13.13 13.0003 13.13C12.5562 13.13 12.1878 12.7617 12.1878 12.3175V12.09C12.1878 10.8333 13.1087 10.2158 13.4553 9.97751C13.8562 9.70667 13.9862 9.52251 13.9862 9.24084C13.9862 8.69917 13.542 8.25501 13.0003 8.25501C12.4587 8.25501 12.0145 8.69917 12.0145 9.24084C12.0145 9.68501 11.6462 10.0533 11.202 10.0533C10.7578 10.0533 10.3895 9.68501 10.3895 9.24084C10.3895 7.80001 11.5595 6.63001 13.0003 6.63001C14.4412 6.63001 15.6112 7.80001 15.6112 9.24084C15.6112 10.4758 14.7012 11.0933 14.3653 11.3208Z" fill="white"/>
</svg>
