<svg width="26" height="26" viewBox="0 0 26 26" fill="none" xmlns="http://www.w3.org/2000/svg">
<path d="M20.583 8.66669C22.3779 8.66669 23.833 7.21161 23.833 5.41669C23.833 3.62176 22.3779 2.16669 20.583 2.16669C18.7881 2.16669 17.333 3.62176 17.333 5.41669C17.333 7.21161 18.7881 8.66669 20.583 8.66669Z" fill="#F4511E"/>
<path d="M22.7503 11.2667V17.8533C22.7503 18.005 22.7395 18.1567 22.7287 18.2975C22.7178 18.4275 22.707 18.5467 22.6853 18.6767C22.6745 18.8067 22.6528 18.9367 22.6312 19.0558C22.252 21.6775 20.5837 23.335 17.9728 23.7142C17.8537 23.7358 17.7237 23.7575 17.5937 23.7683C17.4637 23.79 17.3445 23.8008 17.2145 23.8117C17.0737 23.8225 16.922 23.8333 16.7703 23.8333H8.14699C7.99533 23.8333 7.84366 23.8225 7.70283 23.8117C7.57283 23.8008 7.45366 23.79 7.32366 23.7683C7.19366 23.7575 7.06366 23.7358 6.94449 23.7142C4.33366 23.335 2.66533 21.6775 2.28616 19.0558C2.26449 18.9367 2.24283 18.8067 2.23199 18.6767C2.21033 18.5467 2.19949 18.4275 2.18866 18.2975C2.17783 18.1567 2.16699 18.005 2.16699 17.8533V9.23C2.16699 9.07833 2.17783 8.92667 2.18866 8.78583C2.19949 8.65583 2.21033 8.53667 2.23199 8.40667C2.24283 8.27667 2.26449 8.14667 2.28616 8.0275C2.66533 5.40583 4.33366 3.74833 6.94449 3.36917C7.06366 3.3475 7.19366 3.32583 7.32366 3.315C7.45366 3.29333 7.57283 3.2825 7.70283 3.27167C7.84366 3.26083 7.99533 3.25 8.14699 3.25H14.7337C15.427 3.25 15.9253 3.87833 15.7953 4.55C15.7953 4.57167 15.7845 4.59333 15.7845 4.615C15.7628 4.72333 15.752 4.83167 15.7303 4.95083C15.687 5.40583 15.7087 5.89333 15.8062 6.39167C15.8387 6.52167 15.8603 6.63 15.9037 6.74917C15.9903 7.10667 16.1312 7.4425 16.3153 7.75667C16.3803 7.88667 16.467 8.01667 16.5428 8.13583C16.9003 8.65583 17.3445 9.1 17.8645 9.4575C17.9837 9.53333 18.1137 9.62 18.2437 9.685C18.5578 9.86917 18.8937 10.01 19.2512 10.0967C19.3703 10.14 19.4787 10.1617 19.6087 10.1942C20.107 10.2917 20.5945 10.3133 21.0495 10.27C21.1687 10.2483 21.277 10.2375 21.3853 10.2158C21.407 10.2158 21.4287 10.205 21.4503 10.205C22.122 10.075 22.7503 10.5733 22.7503 11.2667Z" fill="white"/>
</svg>
