<svg width="26" height="26" viewBox="0 0 26 26" fill="none" xmlns="http://www.w3.org/2000/svg">
<path d="M20.5179 5.87166L14.9171 2.6325C13.8446 2.015 12.1654 2.015 11.0929 2.6325L5.43793 5.89333C3.19543 7.41 3.06543 7.6375 3.06543 10.0533V15.9358C3.06543 18.3517 3.19543 18.59 5.48126 20.1283L11.0821 23.3675C11.6238 23.6817 12.3171 23.8333 12.9996 23.8333C13.6821 23.8333 14.3754 23.6817 14.9063 23.3675L20.5613 20.1067C22.8038 18.59 22.9338 18.3625 22.9338 15.9467V10.0533C22.9338 7.6375 22.8038 7.41 20.5179 5.87166ZM12.9996 16.5208C11.0604 16.5208 9.47876 14.9392 9.47876 13C9.47876 11.0608 11.0604 9.47916 12.9996 9.47916C14.9388 9.47916 16.5204 11.0608 16.5204 13C16.5204 14.9392 14.9388 16.5208 12.9996 16.5208Z" fill="white"/>
</svg>
