<svg width="26" height="26" viewBox="0 0 26 26" fill="none" xmlns="http://www.w3.org/2000/svg">
<path d="M17.5395 2.16669H8.46116C4.51783 2.16669 2.16699 4.51752 2.16699 8.46085V17.5284C2.16699 21.4825 4.51783 23.8334 8.46116 23.8334H17.5287C21.472 23.8334 23.8228 21.4825 23.8228 17.5392V8.46085C23.8337 4.51752 21.4828 2.16669 17.5395 2.16669ZM18.287 12.4909C18.287 12.9134 17.9512 13.2492 17.5287 13.2492C17.1062 13.2492 16.7703 12.9134 16.7703 12.4909V12.2959L13.8237 15.2425C13.6612 15.405 13.4445 15.4809 13.217 15.4592C12.9895 15.4375 12.7837 15.3184 12.6645 15.1234L11.5595 13.4767L8.98116 16.055C8.82949 16.2067 8.64533 16.2717 8.45033 16.2717C8.25533 16.2717 8.06033 16.1959 7.91949 16.055C7.62699 15.7625 7.62699 15.2859 7.91949 14.9825L11.1478 11.7542C11.3103 11.5917 11.527 11.5159 11.7545 11.5375C11.982 11.5592 12.1878 11.6784 12.307 11.8734L13.412 13.52L15.6978 11.2342H15.5028C15.0803 11.2342 14.7445 10.8984 14.7445 10.4759C14.7445 10.0534 15.0803 9.71752 15.5028 9.71752H17.5178C17.6153 9.71752 17.7128 9.73919 17.8103 9.77169C17.9945 9.84752 18.1462 9.99919 18.222 10.1834C18.2653 10.2809 18.2762 10.3784 18.2762 10.4759V12.4909H18.287Z" fill="white"/>
</svg>
