<svg width="24" height="24" viewBox="0 0 24 24" fill="none" xmlns="http://www.w3.org/2000/svg">
<path d="M19.7539 11C19.9352 11 20.1103 11.0656 20.2469 11.1848C20.3835 11.3039 20.4723 11.4685 20.4969 11.648L20.5039 11.75V18.75C20.5043 19.5802 20.1869 20.379 19.617 20.9825C19.047 21.5861 18.2677 21.9488 17.4389 21.996L17.2539 22.001H6.25395C5.42398 22.0008 4.62554 21.6831 4.02235 21.113C3.41916 20.5429 3.05693 19.7636 3.00995 18.935L3.00395 18.751V11.75C3.002 11.5586 3.07329 11.3737 3.20322 11.2332C3.33314 11.0927 3.51188 11.0072 3.70282 10.9941C3.89376 10.9811 4.08246 11.0415 4.23029 11.1631C4.37811 11.2847 4.47386 11.4581 4.49795 11.648L4.50395 11.75V18.75C4.50373 19.1895 4.66891 19.613 4.96665 19.9363C5.2644 20.2597 5.67289 20.4591 6.11095 20.495L6.25395 20.501H17.2539C17.6936 20.5015 18.1174 20.3364 18.4409 20.0386C18.7644 19.7409 18.964 19.3322 18.9999 18.894L19.0049 18.751V11.75C19.0049 11.5511 19.084 11.3603 19.2246 11.2197C19.3653 11.079 19.556 11 19.7549 11H19.7539ZM6.21994 7.21601L11.2159 2.22001C11.3429 2.09299 11.5113 2.01576 11.6904 2.00236C11.8695 1.98897 12.0475 2.04029 12.1919 2.14701L12.2759 2.21901L17.2809 7.21601C17.4155 7.34966 17.4944 7.52933 17.5018 7.71882C17.5092 7.90832 17.4445 8.09359 17.3208 8.23733C17.1971 8.38106 17.0235 8.4726 16.835 8.49351C16.6466 8.51441 16.4571 8.46314 16.3049 8.35001L16.2209 8.27701L12.4979 4.56101L12.4989 16.255C12.4989 16.4362 12.4333 16.6113 12.3142 16.7479C12.1951 16.8845 12.0305 16.9734 11.8509 16.998L11.7489 17.005C11.5677 17.005 11.3926 16.9394 11.256 16.8202C11.1194 16.7011 11.0306 16.5366 11.0059 16.357L10.9999 16.255V4.55801L7.27995 8.27701C7.15296 8.40403 6.9846 8.48125 6.80549 8.49465C6.62638 8.50805 6.44842 8.45672 6.30395 8.35001L6.21994 8.27701C6.09267 8.14996 6.01527 7.98141 6.00187 7.80207C5.98847 7.62274 6.03996 7.44456 6.14694 7.30001L6.21994 7.21601L11.2159 2.22001L6.21994 7.21601Z" fill="#270A56" fill-opacity="0.7"/>
</svg>
