<svg width="56" height="61" viewBox="0 0 56 61" fill="none" xmlns="http://www.w3.org/2000/svg">
<path d="M27.9993 33.0098C26.6927 33.0098 25.666 31.8672 25.666 30.4706C25.666 29.074 26.716 27.9314 27.9993 27.9314C29.2827 27.9314 30.3327 29.074 30.3327 30.4706C30.3327 31.8672 29.306 33.0098 27.9993 33.0098Z" fill="#2E3192"/>
<path d="M37.3333 33.0098C36.0267 33.0098 35 31.8672 35 30.4706C35 29.074 36.05 27.9314 37.3333 27.9314C38.6167 27.9314 39.6667 29.074 39.6667 30.4706C39.6667 31.8672 38.64 33.0098 37.3333 33.0098Z" fill="#2E3192"/>
<path d="M18.6673 33.0098C17.3607 33.0098 16.334 31.8672 16.334 30.4706C16.334 29.074 17.384 27.9314 18.6673 27.9314C19.9507 27.9314 21.0007 29.074 21.0007 30.4706C21.0007 31.8672 19.974 33.0098 18.6673 33.0098Z" fill="#2E3192"/>
</svg>
