<svg width="26" height="26" viewBox="0 0 26 26" fill="none" xmlns="http://www.w3.org/2000/svg">
<path d="M17.3337 13.8125H8.66699C8.22283 13.8125 7.85449 13.4442 7.85449 13C7.85449 12.5558 8.22283 12.1875 8.66699 12.1875H17.3337C17.7778 12.1875 18.1462 12.5558 18.1462 13C18.1462 13.4442 17.7778 13.8125 17.3337 13.8125Z" fill="#3C3A40"/>
<path d="M13 18.1459C12.5558 18.1459 12.1875 17.7775 12.1875 17.3334V8.66669C12.1875 8.22252 12.5558 7.85419 13 7.85419C13.4442 7.85419 13.8125 8.22252 13.8125 8.66669V17.3334C13.8125 17.7775 13.4442 18.1459 13 18.1459Z" fill="#3C3A40"/>
<path d="M16.2503 24.6459H9.75032C3.86783 24.6459 1.35449 22.1325 1.35449 16.25V9.75002C1.35449 3.86752 3.86783 1.35419 9.75032 1.35419H16.2503C22.1328 1.35419 24.6462 3.86752 24.6462 9.75002V16.25C24.6462 22.1325 22.1328 24.6459 16.2503 24.6459ZM9.75032 2.97919C4.75616 2.97919 2.97949 4.75585 2.97949 9.75002V16.25C2.97949 21.2442 4.75616 23.0209 9.75032 23.0209H16.2503C21.2445 23.0209 23.0212 21.2442 23.0212 16.25V9.75002C23.0212 4.75585 21.2445 2.97919 16.2503 2.97919H9.75032Z" fill="#3C3A40"/>
</svg>
