<svg width="26" height="26" viewBox="0 0 26 26" fill="none" xmlns="http://www.w3.org/2000/svg">
<path d="M13.0003 23.4542C12.6645 23.4542 12.3395 23.4108 12.0687 23.3133C7.93033 21.8942 1.35449 16.8567 1.35449 9.41417C1.35449 5.6225 4.42033 2.54584 8.19033 2.54584C10.0212 2.54584 11.7328 3.26084 13.0003 4.53917C14.2678 3.26084 15.9795 2.54584 17.8103 2.54584C21.5803 2.54584 24.6462 5.63334 24.6462 9.41417C24.6462 16.8675 18.0703 21.8942 13.932 23.3133C13.6612 23.4108 13.3362 23.4542 13.0003 23.4542ZM8.19033 4.17084C5.31949 4.17084 2.97949 6.52167 2.97949 9.41417C2.97949 16.8133 10.097 20.93 12.5995 21.7858C12.7945 21.8508 13.217 21.8508 13.412 21.7858C15.9037 20.93 23.032 16.8242 23.032 9.41417C23.032 6.52167 20.692 4.17084 17.8212 4.17084C16.1745 4.17084 14.647 4.94 13.6612 6.2725C13.3578 6.68417 12.6645 6.68417 12.3612 6.2725C11.3537 4.92917 9.83699 4.17084 8.19033 4.17084Z" fill="#3C3A40"/>
</svg>
