<svg width="26" height="26" viewBox="0 0 26 26" fill="none" xmlns="http://www.w3.org/2000/svg">
<path d="M19.066 24.4401H6.93268C4.96101 24.4401 3.16268 22.9234 2.83768 20.9734L1.39684 12.3501C1.16934 11.0068 1.81935 9.28431 2.89185 8.42847L10.3994 2.41592C11.851 1.24592 14.1368 1.25676 15.5993 2.42676L23.1069 8.42847C24.1685 9.28431 24.8185 11.0068 24.6019 12.3501L23.161 20.9734C22.836 22.8909 21.0052 24.4401 19.066 24.4401ZM12.9885 3.18511C12.4144 3.18511 11.8402 3.35841 11.4177 3.69425L3.91018 9.7068C3.29268 10.2051 2.87019 11.3101 3.00019 12.0901L4.44102 20.7134C4.63602 21.8509 5.77351 22.8151 6.93268 22.8151H19.066C20.2252 22.8151 21.3627 21.8509 21.5577 20.7026L22.9985 12.0793C23.1285 11.2993 22.6952 10.1835 22.0885 9.69596L14.581 3.69425C14.1477 3.35841 13.5735 3.18511 12.9885 3.18511Z" fill="#3C3A40"/>
<path d="M13.0003 17.6042C11.0612 17.6042 9.47949 16.0225 9.47949 14.0833C9.47949 12.1442 11.0612 10.5625 13.0003 10.5625C14.9395 10.5625 16.5212 12.1442 16.5212 14.0833C16.5212 16.0225 14.9395 17.6042 13.0003 17.6042ZM13.0003 12.1875C11.9603 12.1875 11.1045 13.0433 11.1045 14.0833C11.1045 15.1233 11.9603 15.9792 13.0003 15.9792C14.0403 15.9792 14.8962 15.1233 14.8962 14.0833C14.8962 13.0433 14.0403 12.1875 13.0003 12.1875Z" fill="#3C3A40"/>
</svg>
