<svg width="26" height="26" viewBox="0 0 26 26" fill="none" xmlns="http://www.w3.org/2000/svg">
<path d="M8.66699 24.1799C8.36366 24.1799 8.04947 24.1041 7.76781 23.9524C7.15031 23.6274 6.77116 22.9774 6.77116 22.284V20.7458C3.49949 20.4099 1.35449 18.0049 1.35449 14.5599V8.05992C1.35449 4.33325 3.85699 1.83075 7.58366 1.83075H18.417C22.1437 1.83075 24.6462 4.33325 24.6462 8.05992V14.5599C24.6462 18.2865 22.1437 20.789 18.417 20.789H14.3328L9.71779 23.8658C9.40363 24.0716 9.03533 24.1799 8.66699 24.1799ZM7.58366 3.44491C4.78866 3.44491 2.97949 5.25407 2.97949 8.04907V14.5491C2.97949 17.3441 4.78866 19.1533 7.58366 19.1533C8.02783 19.1533 8.39616 19.5216 8.39616 19.9658V22.2733C8.39616 22.4141 8.48283 22.4791 8.537 22.5116C8.59116 22.5441 8.69951 22.5766 8.81867 22.5008L13.6395 19.2941C13.7695 19.2075 13.932 19.1533 14.0945 19.1533H18.4278C21.2228 19.1533 23.032 17.3441 23.032 14.5491V8.04907C23.032 5.25407 21.2228 3.44491 18.4278 3.44491H7.58366V3.44491Z" fill="#3C3A40"/>
<path d="M12.9995 13.1191C12.5553 13.1191 12.187 12.7508 12.187 12.3066V12.0792C12.187 10.8225 13.1078 10.205 13.4545 9.96667C13.8553 9.69584 13.9853 9.51168 13.9853 9.23001C13.9853 8.68834 13.5411 8.24414 12.9995 8.24414C12.4578 8.24414 12.0137 8.68834 12.0137 9.23001C12.0137 9.67418 11.6453 10.0425 11.2012 10.0425C10.757 10.0425 10.3887 9.67418 10.3887 9.23001C10.3887 7.78918 11.5586 6.61914 12.9995 6.61914C14.4403 6.61914 15.6103 7.78918 15.6103 9.23001C15.6103 10.465 14.7003 11.0825 14.3645 11.31C13.942 11.5917 13.812 11.7758 13.812 12.0792V12.3066C13.812 12.7616 13.4436 13.1191 12.9995 13.1191Z" fill="#3C3A40"/>
<path d="M13 15.8167C12.545 15.8167 12.1875 15.4483 12.1875 15.0042C12.1875 14.56 12.5558 14.1917 13 14.1917C13.4442 14.1917 13.8125 14.56 13.8125 15.0042C13.8125 15.4483 13.455 15.8167 13 15.8167Z" fill="#3C3A40"/>
</svg>
