<svg width="26" height="26" viewBox="0 0 26 26" fill="none" xmlns="http://www.w3.org/2000/svg">
<path d="M20.583 9.47919C18.3405 9.47919 16.5205 7.65919 16.5205 5.41669C16.5205 3.17419 18.3405 1.35419 20.583 1.35419C22.8255 1.35419 24.6455 3.17419 24.6455 5.41669C24.6455 7.65919 22.8255 9.47919 20.583 9.47919ZM20.583 2.97919C19.2397 2.97919 18.1455 4.07335 18.1455 5.41669C18.1455 6.76002 19.2397 7.85419 20.583 7.85419C21.9263 7.85419 23.0205 6.76002 23.0205 5.41669C23.0205 4.07335 21.9263 2.97919 20.583 2.97919Z" fill="#3C3A40"/>
<path d="M16.2503 24.6459H9.75033C3.86783 24.6459 1.35449 22.1325 1.35449 16.25V9.75002C1.35449 3.86752 3.86783 1.35419 9.75033 1.35419H15.167C15.6112 1.35419 15.9795 1.72252 15.9795 2.16669C15.9795 2.61085 15.6112 2.97919 15.167 2.97919H9.75033C4.75616 2.97919 2.97949 4.75585 2.97949 9.75002V16.25C2.97949 21.2442 4.75616 23.0209 9.75033 23.0209H16.2503C21.2445 23.0209 23.0212 21.2442 23.0212 16.25V10.8334C23.0212 10.3892 23.3895 10.0209 23.8337 10.0209C24.2778 10.0209 24.6462 10.3892 24.6462 10.8334V16.25C24.6462 22.1325 22.1328 24.6459 16.2503 24.6459Z" fill="#3C3A40"/>
</svg>
