<svg width="26" height="26" viewBox="0 0 26 26" fill="none" xmlns="http://www.w3.org/2000/svg">
<path d="M13.0001 24.5158C12.2743 24.5158 11.5376 24.3533 10.9634 24.0175L5.00509 20.5833C2.57842 18.9475 2.42676 18.6983 2.42676 16.1308V9.86914C2.42676 7.30164 2.56759 7.05247 4.95092 5.4383L10.9526 1.97164C12.0901 1.3108 13.8776 1.3108 15.0151 1.97164L20.9951 5.41664C23.4218 7.05247 23.5734 7.30164 23.5734 9.86914V16.12C23.5734 18.6875 23.4326 18.9366 21.0493 20.5508L15.0476 24.0175C14.4626 24.3533 13.7259 24.5158 13.0001 24.5158ZM13.0001 3.10914C12.5451 3.10914 12.1009 3.1958 11.7868 3.37997L5.82842 6.82497C4.06259 8.01664 4.06259 8.01664 4.06259 9.86914V16.12C4.06259 17.9725 4.06259 17.9725 5.87176 19.1966L11.7868 22.6091C12.4259 22.9775 13.5851 22.9775 14.2243 22.6091L20.1826 19.1641C21.9376 17.9725 21.9376 17.9725 21.9376 16.12V9.86914C21.9376 8.01664 21.9376 8.01664 20.1284 6.79247L14.2134 3.37997C13.8993 3.1958 13.4551 3.10914 13.0001 3.10914Z" fill="#3C3A40"/>
<path d="M13 17.0625C10.7575 17.0625 8.9375 15.2425 8.9375 13C8.9375 10.7575 10.7575 8.9375 13 8.9375C15.2425 8.9375 17.0625 10.7575 17.0625 13C17.0625 15.2425 15.2425 17.0625 13 17.0625ZM13 10.5625C11.6567 10.5625 10.5625 11.6567 10.5625 13C10.5625 14.3433 11.6567 15.4375 13 15.4375C14.3433 15.4375 15.4375 14.3433 15.4375 13C15.4375 11.6567 14.3433 10.5625 13 10.5625Z" fill="#3C3A40"/>
</svg>
