<svg width="26" height="26" viewBox="0 0 26 26" fill="none" xmlns="http://www.w3.org/2000/svg">
<path d="M8.12522 16.5208C7.91939 16.5208 7.71355 16.445 7.55105 16.2825C7.23689 15.9683 7.23689 15.4483 7.55105 15.1342L11.0177 11.6675C11.1911 11.4942 11.4186 11.4075 11.6677 11.4292C11.9061 11.4508 12.1227 11.5808 12.2636 11.7867L13.4444 13.5633L17.2902 9.7175C17.6044 9.40333 18.1244 9.40333 18.4386 9.7175C18.7527 10.0317 18.7527 10.5517 18.4386 10.8658L13.8886 15.4158C13.7152 15.5892 13.4877 15.6758 13.2386 15.6542C13.0002 15.6325 12.7836 15.5025 12.6427 15.2967L11.4619 13.52L8.69939 16.2825C8.53689 16.445 8.33105 16.5208 8.12522 16.5208Z" fill="#3C3A40"/>
<path d="M17.8747 13.2709C17.4305 13.2709 17.0622 12.9025 17.0622 12.4584V11.1042H15.708C15.2638 11.1042 14.8955 10.7359 14.8955 10.2917C14.8955 9.84752 15.2638 9.47919 15.708 9.47919H17.8747C18.3188 9.47919 18.6872 9.84752 18.6872 10.2917V12.4584C18.6872 12.9025 18.3188 13.2709 17.8747 13.2709Z" fill="#3C3A40"/>
<path d="M16.2503 24.6459H9.75033C3.86783 24.6459 1.35449 22.1325 1.35449 16.25V9.75002C1.35449 3.86752 3.86783 1.35419 9.75033 1.35419H16.2503C22.1328 1.35419 24.6462 3.86752 24.6462 9.75002V16.25C24.6462 22.1325 22.1328 24.6459 16.2503 24.6459ZM9.75033 2.97919C4.75616 2.97919 2.97949 4.75585 2.97949 9.75002V16.25C2.97949 21.2442 4.75616 23.0209 9.75033 23.0209H16.2503C21.2445 23.0209 23.0212 21.2442 23.0212 16.25V9.75002C23.0212 4.75585 21.2445 2.97919 16.2503 2.97919H9.75033Z" fill="#3C3A40"/>
</svg>
